<svg xmlns="http://www.w3.org/2000/svg" class="icon" viewBox="0 0 1024 1024"><path d="M928 161H699c-49 0-97 14-138 41l-49 31-49-31a255 255 0 0 0-138-41H96c-18 0-32 14-32 32v568c0 18 14 32 32 32h229c49 0 97 14 138 41l45 28 4 2 4-2 45-28c41-27 89-41 138-41h229c18 0 32-14 32-32V193c0-18-14-32-32-32zM325 721H136V233h189c35 0 70 10 99 29l49 31 7 5v462c-48-26-101-39-155-39zm563 0H699c-54 0-107 13-155 39V298l7-4 49-32c29-19 64-29 99-29h189v488zM397 361H211c-4 0-7 3-7 8v45c0 4 3 7 7 7h186c4 0 7-3 7-7v-45c0-5-3-8-7-8zm223 8v45c0 4 3 7 7 7h186c4 0 7-3 7-7v-45c0-5-3-8-7-8H627c-4 0-7 3-7 8zM397 501H211c-4 0-7 3-7 8v45c0 4 3 7 7 7h186c4 0 7-3 7-7v-45c0-5-3-8-7-8zm416 0H627c-4 0-7 3-7 8v45c0 4 3 7 7 7h186c4 0 7-3 7-7v-45c0-5-3-8-7-8z"/></svg>