<?xml version="1.0"?>
<svg width="64" height="64" xmlns="http://www.w3.org/2000/svg" xmlns:svg="http://www.w3.org/2000/svg" version="1.0">
 <g class="layer">
  <title>Layer 1</title>
  <path d="m32.76,5.16c-1.77,0.58 -4.13,1.9 -5.4,2.81a8.68,8.53 0 0 1 -3.46,1.82a110.45,108.44 0 0 0 -16.95,21.77c0.17,0.5 -0.17,2.4 -0.76,4.22a14.33,14.07 0 0 0 0.42,11.67a16.02,15.73 0 0 0 20.74,8.28c5.06,-2.07 25.97,-18.21 28.41,-22.02c9.95,-15.15 -5.82,-34.6 -23.02,-28.56zm12.56,3.39a16.78,16.47 0 0 1 10.29,14.9c0,3.89 -2.36,9.19 -5.14,11.75c-5.9,5.22 -22.6,16.97 -25.29,17.71c-9.86,2.98 -19.56,-6.87 -15.94,-16.14c0.51,-1.41 1.26,-1.99 2.02,-1.66c1.01,0.41 1.18,1.32 0.84,3.97c-1.18,8.11 6.66,13.74 13.83,10.1c5.06,-2.57 22.6,-16.56 24.37,-19.37a12.9,12.67 0 0 0 -17.54,-17.38c-2.45,1.32 -3.54,1.57 -4.22,0.91c-1.35,-1.32 -0.17,-2.65 3.79,-4.47c4.22,-1.9 8.85,-1.99 12.98,-0.33zm-16.69,9.35c0,0.5 -11.97,15.89 -12.56,16.31c-0.34,0.17 -1.6,-0.66 -2.87,-1.74l-2.36,-1.99l6.41,-8.28l6.41,-8.28l2.45,1.82c1.43,0.99 2.53,1.99 2.53,2.15zm15.18,-2.73c4.55,2.32 6.32,8.11 3.79,12.75c-0.67,1.32 -6.24,6.13 -12.39,10.76c-12.06,9.11 -14.42,9.93 -18.13,6.54c-2.11,-1.99 -2.61,-6.04 -0.84,-6.71c1.6,-0.58 17.03,-20.69 16.78,-21.77c-0.59,-2.48 6.91,-3.56 10.79,-1.57z" id="svg_1"/>
 </g>
</svg>