<svg xmlns="http://www.w3.org/2000/svg" width="682.7" height="682.7" version="1.0" viewBox="0 0 512 512"><path d="M146 71c-3 2-6 6-6 11l1 18v67c2 4 10 9 12 9l-1 10c-2 13-2 56 0 70 4 24 10 37 19 45 8 7 12 9 29 8 15 0 22-1 51-8 31-9 39-8 46 5 4 8 4 14 0 25-3 8-11 22-16 28l-3 4-2-4-3-3-10 4a2773 2773 0 0 1-58 35c-2 2-4 3-15 4-24 2-40 7-46 13-4 4-4 4-4 10 0 7 2 12 6 15 3 2 5 3 18 3 11 0 16-1 20-2 13-5 21-14 25-30 0-3 1-3 9 9 13 21 14 21 47 1 22-13 25-15 26-23l-2-9-2-7 16-11c21-13 35-22 45-31 17-15 20-23 20-47 0-28-9-43-30-51-6-2-16-3-41-4-34-2-46-3-55-9-3-1-5-3-6-6-2-4-2-6-1-14 1-13 5-34 6-34 3 0 24-19 30-27l11-13c12-13 20-26 20-33 0-9-10-21-20-25-10-3-24-2-33 2-5 2-13 12-16 17l-5 22-6 22-4 18c0 6 3 10 8 12l4 4-2 15c-5 27-5 33 0 41 8 12 24 16 64 18l31 2c20 2 30 11 33 29 3 13 2 31-2 38-2 5-13 16-25 25l-37 24 3-7c10-15 15-29 15-39 1-11-7-24-16-29-4-2-6-3-16-2-11 0-13 0-33 5-34 9-46 11-58 7-5-1-7-3-10-6-15-14-21-66-14-108 1-7 1-7 6-10 6-3 12-10 17-22 7-14 10-24 12-39 3-19 3-23-1-27-6-7-27-16-40-17-6 0-8 0-11 2zm22 6c10 3 23 9 25 12 2 2 2 3 2 10-2 20-6 36-15 54-8 17-17 22-28 17-7-4-7-4-6-24a297 297 0 0 0-1-66c2-6 10-7 23-3zm115 3c7 4 14 13 14 20 0 5-9 18-20 30l-9 11c-8 9-26 26-29 26s-12-4-14-6c-3-3-2-8 2-22 5-15 6-19 7-29l3-14c3-5 10-13 13-15 8-4 26-5 33-1zm-7 289 7 15c4 10 4 13-1 17-6 6-43 27-47 27s-5-2-15-16l-10-15 13-7 30-18 18-10 4 7zm-72 37c-3 12-9 21-19 25-6 3-8 3-19 4-18 1-21-2-21-13 0-7 2-9 13-12 7-2 26-6 40-7l5-1 1 4z"/><path d="M154 80c-2 0-6 4-6 6a800 800 0 0 0 19 47l9-6c8-4 9-6 10-8 3-19 3-20 2-21l-22-16c-3-1-10-3-12-2zm9 6c5 3 20 14 20 16l-1 9-2 7-5 4-6 4-15-40c0-2 5-1 9 0zM248 89l-6 12-4 9 4 11 5 12c1 0 36-27 38-31 3-4 3-8 1-11-3-3-7-4-22-4-14 0-15 0-16 2zm33 5c3 2 0 6-16 19l-16 13-3-8-3-8 4-9 5-9h14c9 0 14 1 15 2z"/></svg>