<svg xmlns="http://www.w3.org/2000/svg" version="1.0" preserveAspectRatio="xMidYMid meet" viewBox="35.5 68 129.47 52.01">

<g transform="translate(0.000000,200.000000) scale(0.100000,-0.100000)" fill="#000000" stroke="none">
<path d="M620 1222 c-226 -83 -265 -100 -265 -117 0 -18 11 -21 105 -33 165 -20 152 -11 171 -130 16 -107 28 -134 55 -117 8 6 65 113 125 239 84 176 106 232 98 243 -6 7 -14 13 -18 13 -3 -1 -125 -45 -271 -98z m210 14 c0 -14 -138 -287 -142 -280 -3 5 -9 35 -12 66 -4 31 -13 61 -19 67 -7 5 -41 13 -77 17 -36 3 -69 9 -74 12 -5 3 63 31 150 63 156 57 174 63 174 55z"/>
<path d="M967 1313 c-11 -10 -8 -143 3 -143 6 0 10 11 10 25 0 20 5 25 24 25 14 0 28 5 31 10 4 6 -7 10 -24 10 -28 0 -31 3 -31 30 0 28 3 30 35 30 19 0 35 5 35 10 0 11 -73 14 -83 3z"/>
<path d="M1080 1278 c-6 -24 -15 -58 -20 -75 -7 -26 -5 -33 6 -33 8 0 14 7 14 15 0 9 9 15 25 15 16 0 25 -6 25 -15 0 -8 7 -15 15 -15 18 0 18 -1 5 36 -5 16 -14 48 -20 72 -6 24 -17 42 -25 42 -8 0 -19 -18 -25 -42z m39 -45 c1 -14 -5 -23 -14 -23 -16 0 -19 20 -8 59 6 23 7 23 14 5 4 -10 8 -29 8 -41z"/>
<path d="M1175 1245 c0 -71 1 -75 23 -75 12 0 22 5 22 10 0 6 -5 10 -11 10 -16 0 -4 111 13 121 9 6 3 9 -17 9 l-30 0 0 -75z"/>
<path d="M1240 1245 c0 -43 4 -75 10 -75 6 0 10 11 10 25 0 14 5 25 10 25 6 0 15 -11 20 -25 5 -14 14 -25 20 -25 13 0 13 6 -2 30 -11 17 -9 22 10 35 24 17 29 54 10 73 -7 7 -29 12 -50 12 l-38 0 0 -75z m74 43 c8 -13 6 -22 -8 -37 -36 -40 -55 -21 -40 37 7 26 31 26 48 0z"/>
<path d="M1207 1132 c-22 -24 -23 -105 -1 -126 37 -37 74 -11 81 58 4 35 1 48 -16 65 -26 26 -43 27 -64 3z m58 -32 c7 -32 -10 -100 -25 -100 -23 0 -39 75 -24 114 11 28 42 19 49 -14z"/>
<path d="M960 1070 l0 -70 48 2 c43 1 44 2 10 5 -30 3 -38 9 -38 24 0 15 7 19 33 20 l32 1 -30 7 c-25 5 -30 11 -30 36 0 26 4 31 35 36 33 6 32 6 -12 8 l-48 1 0 -70z"/>
<path d="M1070 1071 c0 -39 5 -73 10 -76 6 -4 10 14 11 47 l0 53 27 -52 c14 -29 30 -53 34 -53 4 0 8 17 8 38 0 20 3 54 6 75 5 30 4 37 -10 37 -13 0 -16 -11 -17 -52 l0 -53 -21 53 c-30 75 -48 69 -48 -17z"/>
<path d="M1317 1133 c-4 -3 -7 -30 -7 -59 0 -68 29 -100 67 -76 31 20 47 142 18 142 -10 0 -15 -16 -17 -62 -3 -55 -5 -63 -23 -63 -18 0 -20 6 -17 63 3 57 -4 73 -21 55z"/>
<path d="M1441 1121 c-39 -73 21 -167 73 -115 25 25 20 54 -9 54 -14 0 -25 -4 -25 -10 0 -5 7 -10 15 -10 20 0 19 -14 -1 -31 -14 -11 -18 -10 -30 6 -26 35 -12 115 20 115 8 0 21 -10 30 -22 l16 -23 -2 25 c-3 21 -9 25 -40 28 -28 2 -39 -1 -47 -17z"/>
<path d="M1554 1124 c3 -9 6 -40 6 -70 0 -30 5 -54 10 -54 6 0 10 9 10 20 0 13 7 20 20 20 13 0 20 -7 20 -20 0 -34 17 -22 24 18 9 56 7 102 -4 102 -5 0 -10 -10 -10 -22 0 -43 -12 -68 -31 -68 -16 0 -19 8 -19 45 0 35 -4 45 -16 45 -11 0 -14 -5 -10 -16z"/>
<path d="M1069 948 c-5 -26 -3 -148 3 -148 4 0 8 9 8 19 0 31 19 35 32 7 6 -14 15 -26 20 -26 11 0 10 7 -2 30 -8 15 -6 21 9 29 49 27 25 91 -34 91 -19 0 -35 -1 -36 -2z m65 -30 c13 -21 -2 -51 -28 -56 -13 -3 -16 5 -16 38 0 33 3 41 16 38 9 -2 22 -11 28 -20z"/>
<path d="M1185 875 c0 -71 1 -75 23 -75 12 0 22 5 22 11 0 5 -5 7 -12 3 -8 -5 -10 7 -5 47 3 30 8 62 12 72 6 13 2 17 -16 17 -23 0 -24 -3 -24 -75z"/>
<path d="M1257 943 c-11 -10 -8 -143 2 -143 5 0 11 10 13 22 2 14 13 24 32 29 72 20 58 99 -17 99 -13 0 -27 -3 -30 -7z m57 -19 c19 -18 19 -20 6 -45 -13 -24 -50 -26 -50 -1 0 27 12 62 20 62 5 0 16 -7 24 -16z"/>
<path d="M1370 931 c-14 -27 -4 -47 36 -72 19 -11 34 -27 34 -35 0 -20 -37 -17 -49 3 -11 21 -26 11 -18 -12 9 -21 76 -20 84 2 4 11 -5 26 -31 48 -25 21 -37 38 -34 51 3 20 47 33 49 15 3 -26 4 -30 11 -37 13 -13 21 26 8 41 -18 22 -77 19 -90 -4z"/>
<path d="M973 933 c14 -4 17 -16 17 -69 0 -36 4 -64 10 -64 6 0 10 28 10 64 0 59 2 65 23 69 12 2 0 4 -28 4 -27 1 -42 -1 -32 -4z"/>
</g>
</svg>